<?xml version="1.0" encoding="UTF-8"?>
<svg width="14px" height="17px" viewBox="0 0 14 17" version="1.1" xmlns="http://www.w3.org/2000/svg" xmlns:xlink="http://www.w3.org/1999/xlink">
    <!-- Generator: sketchtool 52.6 (67491) - http://www.bohemiancoding.com/sketch -->
    <title>5651A212-4FDE-4A6D-9A9A-2D3025F1E75D</title>
    <desc>Created with sketchtool.</desc>
    <g id="Workspace" stroke="none" stroke-width="1" fill="none" fill-rule="evenodd">
        <g id="0-1-1-Lander-Copy-4" transform="translate(-866.000000, -376.000000)" fill="#000000" stroke="#000000" stroke-width="0.2">
            <g id="Group-5" transform="translate(866.000000, 376.000000)">
                <path d="M3.37408231,5.81645431 L10.8025876,5.81645431 L10.8025876,4.99106483 C10.8025876,2.94302593 9.13637384,1.2768122 7.08833494,1.2768122 C5.04029604,1.2768122 3.37408231,2.94302593 3.37408231,4.99106483 L3.37408231,5.81645431 Z M11.2152823,6.64184378 L2.96138757,6.64184378 C2.73345627,6.64184378 2.54869283,6.45708035 2.54869283,6.22914904 L2.54869283,4.99106483 C2.54869283,2.48790618 4.58517628,0.451422726 7.08833494,0.451422726 C9.5914936,0.451422726 11.627977,2.48790618 11.627977,4.99106483 L11.627977,6.22914904 C11.627977,6.45708035 11.4431723,6.64184378 11.2152823,6.64184378 Z" id="Fill-1"></path>
                <path d="M1.31060862,15.3084333 L12.8660613,15.3084333 L12.8660613,6.64184378 L1.31060862,6.64184378 L1.31060862,15.3084333 Z M13.278756,16.1338227 L0.897913883,16.1338227 C0.66998258,16.1338227 0.485219146,15.949018 0.485219146,15.721128 L0.485219146,6.22914904 C0.485219146,6.00121774 0.66998258,5.81645431 0.897913883,5.81645431 L13.278756,5.81645431 C13.506646,5.81645431 13.6914507,6.00121774 13.6914507,6.22914904 L13.6914507,15.721128 C13.6914507,15.949018 13.506646,16.1338227 13.278756,16.1338227 Z" id="Fill-3"></path>
                <path d="M7.08833494,9.53070694 C6.63321518,9.53070694 6.26294546,9.90097666 6.26294546,10.3560964 C6.26294546,10.8112162 6.63321518,11.1814859 7.08833494,11.1814859 C7.5434547,11.1814859 7.91372441,10.8112162 7.91372441,10.3560964 C7.91372441,9.90097666 7.5434547,9.53070694 7.08833494,9.53070694 M7.08833494,12.0068754 C6.17809543,12.0068754 5.43755599,11.2663359 5.43755599,10.3560964 C5.43755599,9.4458569 6.17809543,8.70531747 7.08833494,8.70531747 C7.99857445,8.70531747 8.73911389,9.4458569 8.73911389,10.3560964 C8.73911389,11.2663359 7.99857445,12.0068754 7.08833494,12.0068754" id="Fill-5"></path>
                <path d="M7.08833494,13.2449596 C6.86040364,13.2449596 6.6756402,13.0601549 6.6756402,12.8322648 L6.6756402,11.5941806 C6.6756402,11.3662906 6.86040364,11.1814859 7.08833494,11.1814859 C7.31622497,11.1814859 7.50102968,11.3662906 7.50102968,11.5941806 L7.50102968,12.8322648 C7.50102968,13.0601549 7.31622497,13.2449596 7.08833494,13.2449596" id="Fill-6"></path>
            </g>
        </g>
    </g>
</svg>