<?xml version="1.0" encoding="UTF-8"?>
<svg width="18px" height="17px" viewBox="0 0 18 17" version="1.1" xmlns="http://www.w3.org/2000/svg" xmlns:xlink="http://www.w3.org/1999/xlink">
    <!-- Generator: sketchtool 52.6 (67491) - http://www.bohemiancoding.com/sketch -->
    <title>5B5317D9-12AF-4A71-9ADE-4AE6B1C0C49E</title>
    <desc>Created with sketchtool.</desc>
    <g id="Workspace" stroke="none" stroke-width="1" fill="none" fill-rule="evenodd">
        <g id="0-1-1-Lander-Copy-4" transform="translate(-864.000000, -316.000000)" fill="#000000">
            <g id="Group-3" transform="translate(864.000000, 316.000000)">
                <path d="M8.79392521,9.37173785 C11.2286723,9.37173785 13.2032484,7.39716171 13.2032484,4.96309087 C13.2032484,2.52902004 11.2286723,0.567630278 8.79392521,0.567630278 C6.35968532,0.567630278 4.38510917,2.54220642 4.38510917,4.96309087 C4.38510917,7.38397533 6.35968532,9.37173785 8.79392521,9.37173785 Z M8.79392521,1.71738134 C10.5794965,1.71738134 12.040311,3.1780267 12.040311,4.96309087 C12.040311,6.74815505 10.5794965,8.20880041 8.79392521,8.20880041 C7.00886103,8.20880041 5.54804661,6.74815505 5.54804661,4.96309087 C5.54804661,3.1780267 7.00886103,1.71738134 8.79392521,1.71738134 Z" id="Fill-1"></path>
                <path d="M1.16644862,16.2562125 L16.4760069,16.2562125 C16.8009329,16.2562125 17.0577292,15.9992472 17.0577292,15.6743212 C17.0577292,12.63131 14.5827468,10.1431412 11.525873,10.1431412 L6.11607537,10.1431412 C3.07306418,10.1431412 0.584726316,12.6181236 0.584726316,15.6743212 C0.584726316,15.9992472 0.841691705,16.2562125 1.16644862,16.2562125 Z M6.11607537,11.3060786 L11.525873,11.3060786 C13.7440591,11.3060786 15.5700349,12.956236 15.8538802,15.0932751 L1.78857535,15.0932751 C2.07258973,12.9694224 3.89856549,11.3060786 6.11607537,11.3060786 Z" id="Fill-3"></path>
            </g>
        </g>
    </g>
</svg>
